<svg width="24" height="20" viewBox="0 0 24 20" fill="none" xmlns="http://www.w3.org/2000/svg">
<path fill-rule="evenodd" clip-rule="evenodd" d="M21.5394 12.311C20.6901 12.311 20.0009 13.0003 20.0009 13.8495V16.9266H3.07706V13.8495C3.07706 13.0003 2.3878 12.311 1.53853 12.311C0.689261 12.311 0 13.0003 0 13.8495V19.2344C0 19.6029 0.400787 20.0037 0.769265 20.0037H22.3087C22.7733 20.0037 23.0779 19.6513 23.0779 19.2344V13.8495C23.0779 13.0003 22.3887 12.311 21.5394 12.311ZM8.46191 6.1569H10.0004V13.0803C10.0004 13.9295 10.6897 14.6188 11.539 14.6188C12.3882 14.6188 13.0775 13.9295 13.0775 13.0803V6.1569H14.616C15.1576 6.1569 15.6361 6.22999 15.9384 5.92613C16.2392 5.62381 16.2392 5.13223 15.9384 4.82914L12.1359 0.220498C11.9744 0.0589529 11.7613 -0.0103072 11.5513 0.00123177C11.3405 -0.0103072 11.1274 0.0589529 10.9666 0.220498L7.16415 4.82914C6.8626 5.13223 6.8626 5.62381 7.16415 5.92613C7.4657 6.22999 8.16036 6.1569 8.46191 6.1569Z" fill="#F4BE00"/>
</svg>
